<?xml version="1.0" encoding="UTF-8" standalone="no"?>
<!-- Created with Inkscape (http://www.inkscape.org/) -->

<svg
   xmlns:dc="http://purl.org/dc/elements/1.1/"
   xmlns:cc="http://creativecommons.org/ns#"
   xmlns:rdf="http://www.w3.org/1999/02/22-rdf-syntax-ns#"
   xmlns:svg="http://www.w3.org/2000/svg"
   xmlns="http://www.w3.org/2000/svg"
   xmlns:sodipodi="http://sodipodi.sourceforge.net/DTD/sodipodi-0.dtd"
   xmlns:inkscape="http://www.inkscape.org/namespaces/inkscape"
   xmlns:xlink="http://www.w3.org/1999/xlink"
   width="136.62581mm"
   height="188.0126mm"
   viewBox="0 0 484.1072 666.18639"
   id="svg2"
   version="1.1"
   inkscape:version="0.91 r13725"
   sodipodi:docname="muffinchurches_logo.svg">
  <defs
     id="defs4" />
  <sodipodi:namedview
     id="base"
     pagecolor="#ffffff"
     bordercolor="#666666"
     borderopacity="1.0"
     inkscape:pageopacity="0.0"
     inkscape:pageshadow="2"
     inkscape:zoom="0.49497475"
     inkscape:cx="30.885785"
     inkscape:cy="460.47387"
     inkscape:document-units="px"
     inkscape:current-layer="layer1"
     showgrid="false"
     fit-margin-top="0"
     fit-margin-left="0"
     fit-margin-right="0"
     fit-margin-bottom="0"
     inkscape:window-width="1366"
     inkscape:window-height="705"
     inkscape:window-x="-8"
     inkscape:window-y="-8"
     inkscape:window-maximized="1" />
  <metadata
     id="metadata7">
    <rdf:RDF>
      <cc:Work
         rdf:about="">
        <dc:format>image/svg+xml</dc:format>
        <dc:type
           rdf:resource="http://purl.org/dc/dcmitype/StillImage" />
        <dc:title />
      </cc:Work>
    </rdf:RDF>
  </metadata>
  <g
     inkscape:label="Calque 1"
     inkscape:groupmode="layer"
     id="layer1"
     transform="translate(-13.509321,-370.75077)">
    <g
       id="church"
       transform="translate(-38.385797,171.72593)">
      <path
         inkscape:connector-curvature="0"
         id="path3373"
         d="m 157.10477,690.25129 c 0,14.05449 0,28.10898 0,42.16347 0,1.75681 0,3.51362 0,5.27043 0,0.87842 0.76801,2.0141 0,2.63523 -0.76802,0.62112 -2.4904,-0.62113 -3.25841,0 -0.76802,0.62112 0,1.75681 0,2.63521 0,1.75681 0,3.51362 0,5.27043 0,14.93291 0,29.8658 0,44.7987 0,7.02725 0,14.05449 0,21.08174 0,0.62621 0.36514,9.95024 0,10.54087 -0.68694,1.11111 -2.57149,1.52411 -3.25843,2.63522 -0.48574,0.78566 0,1.75681 0,2.63521 0,0.87841 0,1.75681 0,2.63522 0,8.78406 0,17.56812 0,26.35218 0,0.8784 0.76801,2.01408 0,2.63521 -0.76802,0.62112 -2.4904,-0.62113 -3.25842,0 -0.76801,0.62112 -1.03041,2.35744 0,2.63522 0.93435,0.25187 21.59128,0 22.80894,0 13.03368,0 26.06737,0 39.10105,0 4.34456,0 8.77349,0.68907 13.03368,0 3.36799,-0.54477 6.38732,-2.17857 9.77528,-2.63522 3.21407,-0.43322 6.51684,0 9.77525,0 6.51684,0 13.03368,0 19.55052,0 18.4644,0 36.92877,0 55.39317,0 6.51684,0 13.03368,0 19.55052,0 2.17228,0 4.40943,0.42609 6.51684,0 2.35618,-0.47638 4.1212,-2.31231 6.51685,-2.63521 6.42816,-0.86647 13.03368,0 19.55052,0 1.08615,0 2.20472,0.21304 3.25843,0 3.33212,-0.67371 6.38731,-2.17857 9.77525,-2.63523 3.2141,-0.43322 6.51685,0 9.77527,0 3.25842,0 6.51685,0 9.77526,0 14.11983,0 28.23965,0 42.35948,0 4.34456,0 8.68912,0 13.03368,0 1.08613,0 2.4904,0.62113 3.25841,0 0.76802,-0.62112 0,-1.75681 0,-2.63521 0,-4.39203 0,-8.78406 0,-13.17609 0,-29.8658 0,-59.73159 0,-89.59738 0,-21.08174 0,-42.16348 0,-63.24522 0,-0.96774 -0.13112,-10.43482 0,-10.54086 0.0813,-0.0657 15.06799,0 16.29212,0 14.11983,0 28.23964,0 42.35948,0 2.73054,0 14.90721,0.56 16.29209,0 0.26068,-0.1054 0.26068,-7.48403 0,-7.90566 -0.68694,-1.11111 -2.17228,-1.75681 -3.25841,-2.63521 -1.08615,-2.63523 -1.7224,-5.42116 -3.25843,-7.90566 -0.68694,-1.11111 -2.57149,-1.52411 -3.25841,-2.63522 -1.53604,-2.48451 -1.98282,-5.32657 -3.25843,-7.90565 -1.80398,-3.64738 -4.34456,-7.02725 -6.51684,-10.54087 -1.08614,-1.75681 -1.91123,-3.63614 -3.25842,-5.27043 -0.85204,-1.03362 -2.57149,-1.52411 -3.25843,-2.63523 -1.53603,-2.4845 -1.49129,-5.52373 -3.25841,-7.90564 -1.58058,-2.13045 -4.67361,-3.28283 -6.51684,-5.27044 -7.17885,-1.32707 -1.7224,-5.42114 -3.25843,-7.90565 -0.68694,-1.1111 -2.17228,-1.75681 -3.25841,-2.63521 -2.17228,-1.75682 -4.34456,-3.51363 -6.51684,-5.27044 -1.08615,-0.87841 -2.40639,-1.6016 -3.25843,-2.63522 -1.34719,-1.63429 -1.80122,-3.69909 -3.25843,-5.27044 -3.01125,-3.2471 -10.26822,-7.18606 -13.03368,-10.54086 -1.34719,-1.6343 -1.54109,-3.88155 -3.25842,-5.27044 -1.71733,-1.38887 -4.49605,-1.54569 -6.51684,-2.63521 -1.38112,-0.74465 -9.10118,-6.81534 -9.77527,-7.90566 -0.48574,-0.78567 0.48574,-1.84954 0,-2.63521 -1.95505,-3.16226 -7.82021,-4.74339 -9.77525,-7.90566 -0.48574,-0.78567 0.76801,-2.01408 0,-2.63521 -0.76802,-0.62112 -2.49042,0.62113 -3.25843,0 -0.76802,-0.62112 0.76801,-2.01409 0,-2.63522 -0.76802,-0.62113 -2.4904,0.62113 -3.25842,0 -0.76801,-0.62113 0.76802,-2.01409 0,-2.63521 -0.76801,-0.62113 -2.49041,0.62112 -3.25842,0 -1.53604,-1.24225 1.53603,-4.02818 0,-5.27044 -0.76802,-0.62112 -2.4904,0.62113 -3.25842,0 -0.76801,-0.62112 0.76802,-2.01409 0,-2.63522 -0.76801,-0.62113 -2.49041,0.62113 -3.25843,0 -1.6292,-1.3176 1.62923,-6.58804 0,-7.90564 -0.76801,-0.62113 -2.49039,0.62112 -3.25841,0 -0.76802,-0.62113 0.76802,-2.0141 0,-2.63523 -0.76802,-0.62112 -2.49041,0.62113 -3.25843,0 -1.53603,-1.24225 1.53604,-4.02818 0,-5.27043 -0.76801,-0.62113 -2.49039,0.62112 -3.25841,0 -0.76802,-0.62113 0.76802,-2.01409 0,-2.63521 -0.76802,-0.62114 -2.28695,0.39282 -3.25843,0 -1.37386,-0.55556 -1.88455,-2.07967 -3.25841,-2.63523 -0.97148,-0.39283 -2.49041,0.62113 -3.25843,0 -0.76802,-0.62112 0.76802,-2.01408 0,-2.63521 -6.74178,-5.45236 0.26355,8.33193 -6.51684,-2.63522 -0.48574,-0.78567 0.76801,-2.01409 0,-2.63522 -1.53604,-1.24226 -4.98081,1.24226 -6.51684,0 -0.76802,-0.62113 -1.08614,-2.63521 0,-2.63521 1.08614,0 1.08614,2.63521 0,2.63521 -6.78038,0 -1.31109,-3.69555 -3.25842,-5.27044 -0.76801,-0.62112 -2.49041,0.62114 -3.25843,0 -0.76801,-0.62112 0.76802,-2.01408 0,-2.63521 -0.76801,-0.62113 -2.49039,0.62113 -3.25841,0 -0.76802,-0.62113 0.76802,-2.0141 0,-2.63522 -0.76802,-0.62113 -2.49041,0.62112 -3.25843,0 -0.76801,-0.62113 0.48574,-1.84954 0,-2.63521 -0.68694,-1.11111 -2.77267,-1.45672 -3.25841,-2.63523 -0.68694,-1.66665 0,-3.51362 0,-5.27043 0,-1.75681 0,-3.51362 0,-5.27044 0,-6.14883 0,-12.29768 0,-18.44651 0,-0.87841 0,-1.75681 0,-2.63522 0,-0.8784 0.76802,-2.01409 0,-2.63521 -0.76802,-0.62113 -2.49041,0.62112 -3.25843,0 -0.78408,-0.63412 0.78408,-9.90675 0,-10.54087 -0.76802,-0.62113 -2.4904,0.62112 -3.25841,0 -0.76802,-0.62113 0.76801,-2.0141 0,-2.63523 -0.76802,-0.62112 -2.49041,0.62113 -3.25843,0 -0.76802,-0.62112 0,-1.75681 0,-2.63521 0,-0.87841 -0.76802,-2.01409 0,-2.63522 0.76802,-0.62113 2.17228,0 3.25843,0 6.51684,0 13.03368,0 19.55052,0 2.26636,0 15.11374,0.4765 16.2921,0 1.37388,-0.55556 1.88455,-2.07966 3.25843,-2.63521 0.84246,-0.34068 17.24094,0 19.55052,0 1.08614,0 2.4904,0.62113 3.25842,0 0.76801,-0.62113 -0.76802,-2.0141 0,-2.63522 0.76801,-0.62113 2.77269,0.78567 3.25842,0 0.97148,-1.57134 -2.17228,-5.27044 0,-5.27044 2.17229,0 0,7.02725 0,5.27044 0,-2.63522 0.63903,-5.32161 0,-7.90565 -1.96454,-7.94406 -8.56528,-5.12021 -13.03368,-10.54087 -2.69439,-3.26858 -3.82247,-7.27228 -6.51684,-10.54087 -4.99053,-6.05407 -1.86121,1.12999 -9.77527,-5.27043 -0.76802,-0.62113 0,-1.75681 0,-2.63522 -1.08613,-0.8784 -1.98035,-1.94614 -3.25841,-2.63522 -2.02079,-1.08953 -4.49606,-1.5457 -6.51685,-2.63522 -1.27806,-0.68907 -1.88455,-2.07967 -3.25842,-2.63521 -0.97148,-0.39284 -2.28694,0.39284 -3.25842,0 -1.37388,-0.55556 -1.88455,-2.07967 -3.25843,-2.63522 -0.97147,-0.39284 -2.49039,0.62112 -3.25841,0 -0.76802,-0.62113 0.76802,-2.01409 0,-2.63521 -0.76802,-0.62113 -2.49041,0.62112 -3.25843,0 -6.74178,-5.45237 10.30235,0.21313 -3.25841,-5.27044 -0.97148,-0.39283 -2.28695,0.39282 -3.25843,0 -1.37386,-0.55555 -1.88455,-2.07967 -3.25841,-2.63522 -0.97148,-0.39284 -2.49041,0.62112 -3.25843,0 -0.76802,-0.62113 0.97147,-2.24239 0,-2.63521 -1.94295,-0.78567 -4.34456,0 -6.51684,0 -1.08613,0 -2.4904,0.62112 -3.25842,0 -0.76801,-0.62114 -1.08614,-2.63523 0,-2.63523 1.08614,0 0,3.51363 0,2.63523 0,-1.75681 0.97146,-3.69911 0,-5.27044 -0.48573,-0.78567 -2.49041,0.62113 -3.25842,0 -0.14774,-0.11948 0,-11.93359 0,-13.17609 0,-0.87841 0,-1.75681 0,-2.63522 0,-0.8784 0.48573,-1.84954 0,-2.63521 -0.68694,-1.11111 -2.77268,-1.45672 -3.25842,-2.63523 -0.68694,-1.66665 0,-3.51362 0,-5.27043 0,-6.14883 0,-12.29768 0,-18.44651 0,-0.87842 0,-1.75682 0,-2.63523 0,-0.8784 0.48574,-1.84954 0,-2.63521 -0.68694,-1.11111 -2.57149,-1.52411 -3.25843,-2.63522 -0.42122,-0.68134 0,-13.94345 0,-15.81131 0,-0.96774 0.13113,-10.43482 0,-10.54086 -0.76801,-0.62113 -3.25841,0.8784 -3.25841,0 0,-0.87841 2.17228,0 3.25841,0 1.08615,0 2.17228,0 3.25843,0 4.34456,0 8.68913,0 13.03369,0 14.11981,0 28.23964,0 42.35946,0 1.08615,0 2.17228,0 3.25843,0 1.08613,0 2.49039,0.62113 3.25841,0 0.76802,-0.62113 -0.76802,-2.01409 0,-2.63522 0.76802,-0.62112 2.49041,0.62113 3.25843,0 0.45951,-0.37163 0.3342,-7.36509 0,-7.90565 -0.68694,-1.1111 -2.77269,-1.45671 -3.25843,-2.63522 -0.68692,-1.66666 0,-3.51362 0,-5.27043 0,-6.18006 0.76802,1.24225 -3.25841,-5.27044 -1.12536,-1.82023 1.14376,-12.25107 0,-13.17608 -0.76802,-0.62113 -2.17228,0 -3.25843,0 -2.17228,0 -4.34456,0 -6.51684,0 -22.80894,0 -45.61789,0 -68.42683,0 -8.68912,0 -17.37825,0 -26.06739,0 -1.08613,0 -2.17228,0 -3.25841,0 -1.08615,0 -2.49039,0.62112 -3.25843,0 -2.54718,-2.06002 2.83427,-4.58436 3.25843,-5.27044 2.24726,-3.6349 -3.94612,-2.35713 3.25841,-5.27043 0.97148,-0.39284 2.49042,0.62112 3.25843,0 0.76802,-0.62113 0,-1.75681 0,-2.63522 0,-0.8784 0,-1.75681 0,-2.63522 0,-11.41927 0,-22.83855 0,-34.25782 0,-0.87841 0,-1.75681 0,-2.63522 0,-0.8784 0.76802,-2.01409 0,-2.63522 -0.10483,-0.0847 -8.98501,0 -9.77527,0 -10.8614,0 -21.7228,0 -32.58421,0 -1.08613,0 -2.17228,0 -3.25841,0 -1.08615,0 -2.77269,-0.78567 -3.25843,0 -0.47669,0.77106 0,13.65439 0,15.81131 0,1.86785 -0.42122,15.12996 0,15.8113 0.68694,1.11111 2.57149,1.52411 3.25843,2.63522 0.97148,1.57134 -1.53603,4.02818 0,5.27043 0.76802,0.62113 2.4904,-0.62112 3.25841,0 0.32585,0.26352 0.32585,7.64213 0,7.90566 -0.76801,0.62112 -2.17228,0 -3.25841,0 -14.62052,0 1.77094,0.78566 -13.03368,-2.63522 -5.32517,-1.23048 -10.88574,-1.66359 -16.29211,-2.63522 -16.18083,-2.90802 -13.42922,-3.54917 -32.58421,-5.27043 -6.606,-0.59362 -15.80781,0 -22.80894,0 -1.08615,0 -2.49041,0.62112 -3.25843,0 -0.76801,-0.62113 0.76802,-2.01409 0,-2.63522 -0.76801,-0.62113 -2.17228,0 -3.25841,0 -1.08615,0 -2.49041,-0.62113 -3.25843,0 -2.39722,1.93873 2.62218,4.75588 3.25843,5.27043 4.34456,3.51363 8.68912,7.02725 13.03368,10.54087 1.08613,0.87841 2.40639,1.6016 3.25841,2.63522 7.17884,1.32708 1.7224,5.42114 3.25843,7.90565 0.68693,1.11111 2.57148,1.52411 3.25842,2.63522 0.88383,1.42957 -0.89158,9.81981 0,10.54087 0.10483,0.0847 8.98501,0 9.77527,0 20.63665,0 41.27333,0 61.90998,0 1.08615,0 2.49042,0.62112 3.25843,0 0.76802,-0.62113 -0.76801,-2.01409 0,-2.63522 0.76802,-0.62113 2.4904,-0.62113 3.25842,0 0.76801,0.62113 0,1.75681 0,2.63522 0,0.8784 0,1.75681 0,2.63522 0,11.41927 0,22.83854 0,34.25782 0,6.14884 0,12.29768 0,18.44652 0,1.18679 -0.49582,7.10366 0,7.90565 0.68694,1.1111 2.57149,1.52412 3.25843,2.63521 1.12535,1.82025 -1.14378,12.25108 0,13.1761 0.76801,0.62112 2.49039,-0.62113 3.25841,0 1.62922,1.3176 -1.62921,6.58804 0,7.90564 0.76801,0.62114 2.49041,-0.62112 3.25843,0 0.10483,0.0848 0,7.26655 0,7.90566 0,1.83289 0.58917,12.22311 0,13.17609 -0.68694,1.1111 -2.57149,1.52411 -3.25843,2.63521 -0.48574,0.78567 0.34347,1.80189 0,2.63523 -0.9589,2.32649 -8.05633,13.72604 -9.77526,15.8113 -0.85204,1.03362 -2.57149,1.52411 -3.25843,2.63521 -0.48573,0.78567 0.48574,1.84955 0,2.63522 -0.68692,1.1111 -2.17228,1.75681 -3.25841,2.63521 -1.08615,0.87842 -2.17228,1.75682 -3.25843,2.63523 -1.08613,0.8784 -2.17228,1.75681 -3.25841,2.63521 0,0.87841 0.60248,1.90433 0,2.63522 -2.55612,3.10085 -7.21915,4.8048 -9.77527,7.90565 -1.34719,1.63429 -1.54108,3.88156 -3.25841,5.27043 -1.71735,1.38889 -4.49606,1.54569 -6.51684,2.63522 -1.27806,0.68908 -2.17229,1.75682 -3.25843,2.63522 -1.08614,0.87841 -2.57148,1.52411 -3.25842,2.63522 -0.48573,0.78567 0.76802,2.01408 0,2.63521 -0.76801,0.62113 -2.28695,-0.39284 -3.25843,0 -13.56075,5.48358 3.48338,-0.18192 -3.25841,5.27043 -1.53603,1.24226 -4.98081,-1.24225 -6.51684,0 -0.76802,0.62113 0.76802,2.0141 0,2.63523 -0.76802,0.62112 -3.25843,0.8784 -3.25843,0 0,-0.87841 2.17228,0 3.25843,0 9.77525,0 19.55053,0 29.32578,0 1.08615,0 2.17228,0 3.25843,0 1.08613,0 2.4904,0.62112 3.25841,0 0.76802,-0.62113 -0.76801,-2.0141 0,-2.63523 0.76802,-0.62112 2.49041,0.62113 3.25843,0 0.76802,-0.62112 -0.76802,-2.01408 0,-2.63521 0.76802,-0.62112 2.17228,0 3.25841,0 1.08615,0 2.17228,0 3.25843,0 7.60298,0 15.20597,0 22.80894,0 1.08615,0 2.49041,-0.62112 3.25843,0 1.0741,0.86867 -0.78598,8.6339 0,10.54087 0.48574,1.17851 2.57149,1.52411 3.25841,2.63521 0.4284,0.69292 0,9.16286 0,10.54087 0,6.14885 0,12.29768 0,18.44653 0,2.63521 1.03041,5.40566 0,7.90564 -0.48572,1.17851 -2.57147,1.52412 -3.25841,2.63523 -1.12536,1.82023 1.14377,12.25107 0,13.17608 -0.76802,0.62113 -2.49041,-0.62113 -3.25843,0 -0.76802,0.62113 0,1.75681 0,2.63522 -1.08613,0.8784 -1.98035,1.94614 -3.25841,2.63522 -2.02079,1.08953 -4.49606,1.54569 -6.51684,2.63521 -1.27806,0.68909 -1.98037,1.94614 -3.25843,2.63523 -2.02079,1.08952 -4.49606,1.54568 -6.51685,2.63521 -1.27804,0.68908 -1.88455,2.07967 -3.25841,2.63522 -0.97147,0.39282 -2.49041,-0.62114 -3.25843,0 -0.76801,0.62113 0.76802,2.01409 0,2.63521 -0.76801,0.62113 -2.28693,-0.39283 -3.25841,0 -1.37388,0.55556 -1.88455,2.07967 -3.25843,2.63523 -0.97147,0.39282 -2.22802,-0.27778 -3.25841,0 -2.30405,0.62112 -4.34456,1.75681 -6.51684,2.63521 -2.17228,0.87841 -4.43427,1.62465 -6.51684,2.63522 -3.35806,1.62948 -6.27257,3.85404 -9.77528,5.27043 -0.97147,0.39284 -2.17228,0 -3.25841,0 -2.17228,0.8784 -4.49605,1.54569 -6.51684,2.63522 -1.27806,0.68908 -1.80121,2.24238 -3.25843,2.63522 -2.0608,0.55554 -4.45602,-0.55556 -6.51684,0 -1.57795,0.42538 -14.47764,12.19779 -16.2921,13.17608 -0.90373,0.48726 -2.28695,-0.39284 -3.25843,0 -1.37386,0.55555 -2.17228,1.75681 -3.25841,2.63522 -1.08615,0.8784 -2.57149,1.52411 -3.25843,2.63521 -0.48573,0.78567 0.76802,2.0141 0,2.63523 -0.76801,0.62112 -2.28693,-0.39284 -3.25841,0 -1.37388,0.55554 -1.98037,1.94614 -3.25843,2.63521 -2.02079,1.08953 -4.49605,1.54568 -6.51684,2.63522 -1.27806,0.68907 -2.17228,1.75681 -3.25841,2.63521 -1.08615,0.87841 -2.57149,1.52411 -3.25843,2.63522 -0.48574,0.78568 0.97147,2.24238 0,2.63522 -1.94295,0.78567 -4.34456,0 -6.51684,0 -1.08614,0 -2.4904,-0.62113 -3.25842,0 -0.76801,0.62112 0.76802,2.01409 0,2.63522 -0.76801,0.62113 -2.49041,-0.62113 -3.25843,0 -0.76801,0.62113 0.76802,2.01408 0,2.63521 -1.53603,1.24225 -4.9808,-1.24225 -6.51684,0 -1.53603,1.24225 1.53604,4.02818 0,5.27043 -1.53603,1.24226 -4.98081,-1.24225 -6.51684,0 -0.76801,0.62113 0.76802,2.0141 0,2.63523 -0.76801,0.62112 -2.28695,-0.39284 -3.25841,0 -1.37388,0.55555 -1.88455,2.07967 -3.25843,2.63521 -0.97148,0.39283 -2.4904,-0.62113 -3.25841,0 -0.76804,0.62112 0.48572,1.84955 0,2.63522 -0.68694,1.1111 -2.1723,1.75681 -3.25843,2.63521 -1.08615,0.87841 -1.88455,2.07967 -3.25843,2.63523 -0.97146,0.39283 -2.28694,-0.39284 -3.25841,0 -2.74774,1.11109 -3.96073,3.89228 -6.51685,5.27043 -2.02078,1.08952 -4.49605,1.54569 -6.516839,2.63521 -1.278056,0.68908 -1.884549,2.07967 -3.25842,2.63522 -0.971473,0.39284 -2.772683,-0.78567 -3.258421,0 -0.971473,1.57135 1.536034,4.02819 0,5.27044 -1.536035,1.24225 -4.573895,-0.78567 -6.516842,0 -0.971474,0.39284 0.768018,2.01408 0,2.63521 -0.768016,0.62113 -2.490404,-0.62113 -3.258421,0 -0.768018,0.62113 0.768017,2.0141 0,2.63522 -0.768018,0.62113 -2.490404,-0.62112 -3.258421,0 -0.768018,0.62113 0.485737,1.84956 0,2.63521 -6.780383,10.96715 0.224948,-2.81713 -6.516841,2.63523 -0.768018,0.62112 0.768016,2.01408 0,2.63521 -0.768018,0.62112 -2.490405,-0.62113 -3.258421,0 -0.768018,0.62112 0.768016,2.0141 0,2.63522 -0.768018,0.62113 -2.490404,-0.62112 -3.258423,0 -1.536032,1.24225 1.536035,4.02818 0,5.27044 -1.536032,1.24225 -4.980807,-1.24226 -6.516841,0 -0.768017,0.62112 0.485738,1.84955 0,2.63521 -0.686935,1.11111 -2.571485,1.52411 -3.258421,2.63522 -0.485736,0.78567 0.485738,1.84955 0,2.63521 -0.686934,1.11111 -2.571485,1.52411 -3.258421,2.63522 -0.485736,0.78568 0,1.75682 0,2.63522 0,0.87841 -0.485736,1.84955 0,2.63522 3.198211,5.17305 6.192288,1.18637 9.775263,2.63521 14.912514,6.03019 -13.826838,-1.09222 9.775264,5.27045 1.030402,0.27776 2.490403,-0.62114 3.258421,0 0.768016,0.62112 -0.768018,2.01408 0,2.63521 1.008959,0.81598 15.283144,-0.81599 16.292104,0 0.768018,0.62112 -0.768017,2.01408 0,2.63522 1.536034,1.24225 4.980807,-1.24226 6.516841,0 0.768019,0.62113 -0.768016,2.01409 0,2.63521 0.104786,0.0848 8.985019,0 9.775259,0 13.0337,0 26.06738,0 39.10106,0 1.08614,0 2.17228,0 3.25842,0 1.08614,0 2.49041,-0.62112 3.25843,0 0.76801,0.62113 -0.76802,2.0141 0,2.63523 0.76801,0.62112 2.49039,-0.62113 3.25841,0 0.76801,0.62112 0,1.75681 0,2.63521 0,0.87841 0,1.75681 0,2.63522 0,6.14883 0,12.29768 0,18.44651 0,0.87842 0,1.75682 0,2.63523 0,0.8784 0.76801,2.01408 0,2.63521 -0.76802,0.62112 -2.4904,-0.62113 -3.25841,0 -0.76802,0.62112 0.76801,2.0141 0,2.63522 -4.34457,3.51362 -3.25843,-4.39203 -3.25843,2.63521"
         style="fill:#00ff00;fill-rule:evenodd;stroke:#000000;stroke-width:1.4504236px;stroke-linecap:butt;stroke-linejoin:miter;stroke-opacity:1" />
      <path
         inkscape:connector-curvature="0"
         id="path3375"
         d="m 306.99214,479.4339 c -1.08615,-3.51362 -3.25843,-6.9191 -3.25843,-10.54087 0,-2.77776 2.69376,-5.16568 3.25843,-7.90564 0.36757,-1.78362 -0.88856,-13.65549 0,-15.81131 0.76802,-1.86337 2.4904,-3.40705 3.25842,-5.27043 0.58783,-1.42619 0,-9.64313 0,-10.54087 0,-7.02725 0,-14.05449 0,-21.08174 0,-0.63911 -0.10484,-7.82091 0,-7.90565 0.76801,-0.62113 2.17228,0 3.25842,0 1.46746,0 8.78361,-0.40099 9.77526,0 1.37388,0.55555 1.88455,2.07966 3.25843,2.63522 0.97146,0.39283 2.17228,0 3.25841,0 1.08615,0 2.17228,0 3.25843,0 5.43069,0 10.8614,0 16.2921,0 1.08614,0 2.17228,0 3.25842,0 1.08614,0 2.4904,-0.62113 3.25842,0 0.13112,0.10604 0,9.57312 0,10.54087 0,7.02724 0,14.05449 0,21.08173 0,1.1868 0.49583,7.10366 0,7.90565 -0.68694,1.11111 -2.57149,1.52411 -3.25842,2.63522 -0.48573,0.78568 0,1.75681 0,2.63521 0,4.39204 0,8.78406 0,13.1761 0,0.8784 0,1.75681 0,2.63521 0,0.87841 0.48574,1.84955 0,2.63522 -0.68693,1.1111 -2.57149,1.52411 -3.25842,2.63521 -0.49582,0.80199 0,6.71887 0,7.90566 0,7.02725 0,14.05449 0,21.08174 0,0.8784 0,1.75681 0,2.63521 0,0.87841 -0.76802,2.01409 0,2.63522 0.76801,0.62113 2.49041,-0.62113 3.25842,0 0.76802,0.62113 0.76802,2.01409 0,2.63521 -0.76801,0.62114 -2.17228,0 -3.25842,0 -1.46746,0 -8.78362,0.401 -9.77526,0 -1.37388,-0.55554 -1.88455,-2.07965 -3.25843,-2.63521 -1.94295,-0.78567 -4.57389,0.78567 -6.51684,0 -1.37386,-0.55555 -1.88455,-2.07967 -3.25841,-2.63522 -0.97148,-0.39283 -2.49041,0.62112 -3.25843,0 -0.76802,-0.62113 0.76802,-2.01409 0,-2.63521 -1.62921,-1.31761 -8.14605,1.3176 -9.77526,0 -0.76803,-0.62113 0.76802,-2.0141 0,-2.63523 -0.76803,-0.62112 -2.49041,0.62113 -3.25842,0 -0.3143,-0.25417 0.26368,-4.20416 0,-5.27043 -0.87826,-3.55142 -2.70296,-6.94707 -3.25842,-10.54087 -0.87433,-5.65684 0,-12.53513 0,-18.44651"
         style="fill:#999999;fill-rule:evenodd;stroke:#000000;stroke-width:1.4504236px;stroke-linecap:butt;stroke-linejoin:miter;stroke-opacity:1" />
    </g>
    <text
       xml:space="preserve"
       style="font-style:normal;font-weight:normal;font-size:41.48052597px;line-height:125%;font-family:sans-serif;letter-spacing:0px;word-spacing:0px;fill:#008080;fill-opacity:1;stroke:none;stroke-width:1px;stroke-linecap:butt;stroke-linejoin:miter;stroke-opacity:1"
       x="147.03366"
       y="848.74976"
       id="title"
       sodipodi:linespacing="125%"
       transform="scale(0.86829215,1.1516861)"><tspan
         sodipodi:role="line"
         id="tspan3383"
         x="147.03366"
         y="848.74976">MuffinChurches</tspan></text>
    <g
       id="muffin"
       transform="matrix(0.88178147,-0.02252504,0.08427674,1.1738,-53.994649,62.486983)">
      <path
         inkscape:connector-curvature="0"
         id="path3338"
         d="m 232.73988,660.70249 c -2.59702,3.75262 2.88497,2.99303 3.6636,4.7702 0.26706,0.60956 -0.29908,1.38097 0.0684,1.95203 0.18374,0.28554 0.98044,-0.32216 1.16418,-0.0366 0.39872,0.61959 -0.29365,3.56662 0.13683,3.90406 1.99732,1.56566 1.03877,-3.61535 1.2326,1.91541 0.008,0.23671 0.0641,2.89784 0.10262,2.92805 0.28246,0.22142 0.88172,-0.25804 1.16418,-0.0366 0.56493,0.44283 -0.49651,1.5092 0.0684,1.95203 0.28247,0.22142 0.88173,-0.25804 1.1642,-0.0366 0.28246,0.22141 0.0228,0.65067 0.0342,0.97601 0.028,0.79887 0.0249,5.57588 0.20524,5.8561 0.18374,0.28553 0.88172,-0.25804 1.16418,-0.0366 0.28247,0.22142 0.0228,0.65068 0.0342,0.97602 0.0114,0.32534 0.0228,0.65068 0.0342,0.97602 0.0242,0.6918 0.0459,5.60849 0.20524,5.8561 0.25985,0.40381 0.93854,0.53559 1.1984,0.93939 0.16205,0.25182 0.11893,3.39369 0.13682,3.90407 0.0912,2.60271 0.18243,5.20542 0.27364,7.80813 0.0114,0.32535 -0.24826,0.7546 0.0342,0.97602 1.59786,1.25252 1.10718,-1.66332 1.19839,0.93939 0.0947,2.70278 1.13788,-0.78737 1.2326,1.91541 0.0114,0.32534 0.0228,0.65068 0.0342,0.97602 0.0114,0.32533 0.42227,0.9638 0.0342,0.97601 -0.38807,0.0122 -0.42228,-0.9638 -0.0342,-0.97601 0.37538,-0.0118 1.74042,1.62797 2.39679,1.87878 0.70438,0.26915 1.62399,-0.34241 2.32838,-0.0733 0.49807,0.19031 0.79893,0.62626 1.19839,0.93938 3.97458,3.11557 -1.11373,-0.42556 2.36258,0.90277 0.49808,0.19031 0.70032,0.74907 1.1984,0.93939 0.3522,0.13457 0.88172,-0.25805 1.16419,-0.0366 0.28246,0.22142 -0.24826,0.7546 0.0342,0.97602 0.28247,0.22142 0.88173,-0.25804 1.1642,-0.0366 0.28246,0.22142 -0.24826,0.7546 0.0342,0.97602 0.28246,0.22141 0.81199,-0.17121 1.16419,-0.0366 0.49808,0.19032 0.70032,0.74907 1.19839,0.93939 0.46837,0.17897 3.24758,-0.30193 3.49257,-0.10988 0.28246,0.22142 -0.24826,0.7546 0.0342,0.97602 0.5992,0.46969 2.89337,-0.57958 3.49258,-0.10988 0.28246,0.22141 -0.24826,0.7546 0.0342,0.97602 0.0482,0.0378 4.22922,-0.13306 4.65676,-0.14651 0.5243,-0.0165 3.13306,-0.24725 3.49256,-0.10988 0.49808,0.19032 0.67266,0.81027 1.1984,0.93939 0.60177,0.14779 6.15284,-0.19358 6.98513,-0.21976 0.38806,-0.0122 0.812,-0.1712 1.16419,-0.0366 3.67199,1.4031 -2.86113,1.33905 4.72517,1.80553 2.32169,0.14276 4.65676,-0.14651 6.98513,-0.21976 2.32838,-0.0733 4.65677,-0.14651 6.98514,-0.21976 1.16419,-0.0366 2.35485,-0.31106 3.49257,-0.10988 0.53633,0.0948 0.6544,0.88078 1.1984,0.93939 1.68466,0.18151 9.05183,-0.28478 11.64189,-0.36626 8.53738,-0.2686 17.07477,-0.5372 25.61216,-0.80579 1.94031,-0.0611 3.88063,-0.12209 5.82094,-0.18313 0.77613,-0.0244 1.55225,-0.0488 2.32838,-0.0733 0.38807,-0.0122 0.8222,0.11979 1.16419,-0.0366 0.48365,-0.22121 0.61444,-0.85077 1.12998,-1.01265 0.61975,-0.19459 3.6711,-0.1155 4.65676,-0.14651 0.38806,-0.0122 0.77613,-0.0244 1.16419,-0.0366 0.38806,-0.0122 0.89785,0.20205 1.16419,-0.0366 1.50664,-1.35019 -1.97452,-0.91497 1.12998,-1.01264 0.38806,-0.0122 1.15279,-0.36197 1.1642,-0.0366 0.0114,0.32534 -1.15279,0.36197 -1.1642,0.0366 -0.0161,-0.4601 0.97174,-0.5707 1.12999,-1.01265 0.2013,-0.56216 -0.13881,-3.96083 -0.17103,-4.88008 -0.12542,-3.57873 -0.25084,-7.15746 -0.37626,-10.73619 -0.0144,-0.41057 -0.36822,-5.56031 -0.20523,-5.8561 0.231,-0.41925 0.89896,-0.5934 1.12998,-1.01264 0.32669,-0.59291 -0.60109,-1.47467 -0.0684,-1.95204 0.26634,-0.23868 0.89785,0.20206 1.1642,-0.0366 0.231,-0.20701 -0.31986,-2.5338 -0.10262,-2.92804 0.23101,-0.41925 0.89897,-0.5934 1.12998,-1.01265 0.21724,-0.39424 -0.33362,-2.72103 -0.10262,-2.92805 0.26634,-0.23868 0.89785,0.20206 1.1642,-0.0366 0.30918,-0.27709 -0.43405,-3.36466 -0.13683,-3.90407 0.23101,-0.41925 0.89897,-0.5934 1.12998,-1.01265 0.16335,-0.29645 -0.30054,-0.73733 -0.0342,-0.97601 0.26634,-0.23868 0.89785,0.20205 1.16419,-0.0366 10e-4,-10e-4 -0.10419,-2.92357 -0.10262,-2.92805 0.15825,-0.44195 0.89897,-0.5934 1.12998,-1.01264 0.29723,-0.53941 -0.44601,-3.62699 -0.13682,-3.90407 0.26634,-0.23868 0.89785,0.20205 1.16419,-0.0366 0.56499,-0.50632 -0.66761,-2.42173 -0.10261,-2.92805 1.50664,-1.35019 1.22119,1.59007 1.12998,-1.01264 -0.0802,-2.28894 -0.25828,0.46873 1.09578,-1.98866 0.29722,-0.53941 -0.44601,-3.62699 -0.13683,-3.90407 0.26634,-0.23868 0.89785,0.20206 1.16419,-0.0366 0.16617,-0.14892 -0.23958,-2.92374 -0.10262,-2.92805 0.38807,-0.0122 0.42228,0.96381 0.0342,0.97602 -0.5488,0.0173 -0.70032,-0.74907 -1.19839,-0.93939 -0.3522,-0.13458 -0.77613,0.0244 -1.16419,0.0366 -0.38807,0.0122 -0.77613,0.0244 -1.16419,0.0366 -2.73023,0.0859 0.54074,-0.24731 -2.29417,1.04927 -0.342,0.15642 -0.77613,0.0244 -1.1642,0.0366 -0.38806,0.0122 -0.77612,0.0244 -1.16418,0.0366 -1.94032,0.061 -3.88063,0.12209 -5.82095,0.18313 -2.73023,0.0859 0.54074,-0.24731 -2.29417,1.04927 -0.342,0.15641 -0.77613,0.0244 -1.1642,0.0366 -0.38806,0.0122 -0.77612,0.0244 -1.16418,0.0366 -1.94032,0.0611 -3.88063,0.12209 -5.82095,0.18313 -4.65676,0.14651 -9.31351,0.29302 -13.97027,0.43952 -0.6498,0.0204 -5.2828,0.3153 -5.82094,0.18314 -0.52574,-0.12912 -0.66207,-0.84455 -1.1984,-0.93939 -1.13772,-0.20119 -2.32838,0.0733 -3.49256,0.10988 -0.38807,0.0122 -0.88173,0.25804 -1.1642,0.0366 -0.56492,-0.44284 0.49652,-1.5092 -0.0684,-1.95204 -0.56493,-0.44283 -1.76345,0.51609 -2.32838,0.0733 -0.56492,-0.44284 0.49652,-1.50921 -0.0684,-1.95204 -1.78222,-1.39704 -0.97812,1.93485 -1.09577,1.98866 -0.68399,0.31283 -1.55225,0.0488 -2.32838,0.0733 -0.38807,0.0122 -0.89785,-0.20206 -1.16419,0.0366 -1.50665,1.35019 1.97452,0.91497 -1.12998,1.01264 -1.1642,0.0366 -2.39894,-0.23351 -3.49257,0.10988 -0.51555,0.16188 -0.64633,0.79144 -1.12998,1.01265 -0.41483,0.18972 -5.01121,0.15766 -5.82095,0.18313 -0.38806,0.0122 -0.89785,-0.20205 -1.16419,0.0366 -0.26634,0.23868 0.3762,0.8196 0.0342,0.97601 -0.26974,0.12337 -3.89198,0.12245 -4.65676,0.14651 -3.1045,0.0977 -6.20901,0.19534 -9.31352,0.29301 -0.38806,0.0122 -0.77613,0.0244 -1.16419,0.0366 -0.38806,0.0122 -0.88172,0.25804 -1.16419,0.0366 -0.28246,-0.22142 0.24826,-0.7546 -0.0342,-0.97602 -0.5992,-0.4697 -2.89337,0.57958 -3.49257,0.10988 -0.28246,-0.22141 0.24826,-0.7546 -0.0342,-0.97602 -0.56493,-0.44283 -1.76345,0.51609 -2.32838,0.0733 -0.28247,-0.22142 0.24826,-0.7546 -0.0342,-0.97602 -0.28246,-0.22141 -0.88172,0.25805 -1.16419,0.0366 -0.28246,-0.22142 0.24826,-0.7546 -0.0342,-0.97602 -0.28247,-0.22142 -0.88173,0.25804 -1.16419,0.0366 -0.28247,-0.22142 0.24826,-0.7546 -0.0342,-0.97602 -0.28246,-0.22141 -0.88172,0.25804 -1.16419,0.0366 -0.28246,-0.22142 0.24826,-0.7546 -0.0342,-0.97602 -0.28247,-0.22142 -0.77613,0.0244 -1.16419,0.0366 -0.0114,-0.32534 0.14954,-0.69049 -0.0342,-0.97602 -0.25985,-0.4038 -0.93854,-0.53559 -1.19839,-0.93939 -0.18375,-0.28553 -0.42227,-0.96381 -0.0342,-0.97602 0.38807,-0.0122 0.42227,0.96381 0.0342,0.97602 -0.54881,0.0173 -0.70032,-0.74907 -1.1984,-0.93939 -0.35219,-0.13458 -0.77612,0.0244 -1.16419,0.0366 -3.1045,0.0977 0.37667,-0.33755 -1.12998,1.01264 -0.26634,0.23868 -0.89785,-0.20206 -1.16419,0.0366 -0.26634,0.23868 0.30054,0.73733 0.0342,0.97601 -0.53268,0.47737 -1.7957,-0.40411 -2.32838,0.0733 -0.26634,0.23868 0.30054,0.73733 0.0342,0.97601 -0.26634,0.23868 -0.89784,-0.20205 -1.16418,0.0366 -0.26634,0.23868 0.30054,0.73734 0.0342,0.97602 -0.56499,0.50632 -2.92757,-0.39645 -3.49257,0.10988 -0.26634,0.23868 0.30055,0.73733 0.0342,0.97601 -0.23101,0.20702 -3.03776,-0.0981 -3.49257,0.10988 -0.48365,0.22121 -0.64633,0.79144 -1.12998,1.01265 -0.91767,0.41971 -2.5749,-0.30983 -3.49257,0.10988 -0.48365,0.2212 -0.64633,0.79143 -1.12998,1.01264 -0.30162,0.13795 -4.04798,0.12735 -4.65676,0.14651 -3.10451,0.0977 -6.20901,0.19534 -9.31351,0.29301 -0.52431,0.0165 -3.13307,0.24725 -3.49257,0.10988 -0.49808,-0.19032 -0.70032,-0.74907 -1.1984,-0.93939 -0.70438,-0.26915 -1.59929,0.29224 -2.32837,0.0733 -1.63029,-0.48967 -6.46064,-1.75093 -4.72517,-1.80553 2.08978,-0.0657 3.92624,1.17927 0,0 z"
         style="fill:#aa0000;fill-rule:evenodd;stroke:#000000;stroke-width:0.52791351px;stroke-linecap:butt;stroke-linejoin:miter;stroke-opacity:1" />
      <path
         inkscape:connector-curvature="0"
         id="path3342"
         d="m 324.57161,720.34732 c 11.75964,-2.04531 0.74715,4.38249 2.53361,5.78284 0.28246,0.22142 0.88173,-0.25804 1.16419,-0.0366 0.80204,0.62869 -0.73363,1.32333 0.0684,1.95203 0.28247,0.22142 0.88172,-0.25804 1.16419,-0.0366 0.28246,0.22142 -0.24826,0.75461 0.0342,0.97602 0.28247,0.22142 0.88173,-0.25804 1.1642,-0.0366 0.28246,0.22141 -0.24826,0.7546 0.0342,0.97601 0.28247,0.22142 0.88172,-0.25804 1.16419,-0.0366 2.47952,1.94364 -3.68366,0.0369 1.2326,1.91541 0.3522,0.13458 0.88172,-0.25804 1.16419,-0.0366 0.28246,0.22141 -0.24826,0.7546 0.0342,0.97601 0.28247,0.22142 0.77613,-0.0244 1.1642,-0.0366 0.38806,-0.0122 0.77612,-0.0244 1.16418,-0.0366 3.10451,-0.0977 -0.39946,-0.31313 1.1984,0.93939 0.28837,0.22605 4.36838,-0.37255 4.65676,-0.14651 0.28246,0.22142 -0.24826,0.75461 0.0342,0.97602 0.0386,0.0302 3.21022,-0.101 3.49257,-0.10988"
         style="fill:none;fill-rule:evenodd;stroke:#000000;stroke-width:0.52791351px;stroke-linecap:butt;stroke-linejoin:miter;stroke-opacity:1" />
      <path
         inkscape:connector-curvature="0"
         id="path3344"
         d="m 290.77591,720.43347 c -0.73052,1.32578 -1.00044,2.9099 -2.19155,3.97733 -0.53268,0.47736 -1.7957,-0.40412 -2.32838,0.0733 -0.53268,0.47736 0.39511,1.35913 0.0684,1.95203 -0.16335,0.29646 -0.89785,-0.20205 -1.16419,0.0366 -0.26634,0.23868 0.30055,0.73733 0.0342,0.97601 -0.53268,0.47737 -1.64439,-0.23958 -2.32838,0.0733 -0.48366,0.2212 -0.64633,0.79144 -1.12998,1.01264 -0.342,0.15642 -0.89785,-0.20205 -1.16419,0.0366 -0.26634,0.23868 0.30054,0.73733 0.0342,0.97601 -0.0364,0.0326 -3.21022,0.101 -3.49257,0.10988 -2.32837,0.0733 -4.65675,0.14651 -6.98513,0.21976 -0.38806,0.0122 -0.89785,-0.20205 -1.16419,0.0366 -0.26634,0.23868 0.30055,0.73734 0.0342,0.97602 -0.26634,0.23868 -1.15279,0.36196 -1.16419,0.0366 -0.0114,-0.32534 0.77612,-0.0244 1.16419,-0.0366"
         style="fill:none;fill-rule:evenodd;stroke:#000000;stroke-width:0.52791351px;stroke-linecap:butt;stroke-linejoin:miter;stroke-opacity:1" />
      <path
         inkscape:connector-curvature="0"
         id="path3346"
         d="m 232.70567,659.72647 c -5.07666,-2.96698 -2.81906,-2.84259 -5.92356,-2.74492 -0.38806,0.0122 -0.88173,0.25805 -1.16419,0.0366 -0.56493,-0.44284 0.49652,-1.5092 -0.0684,-1.95203 -0.28247,-0.22142 -0.88173,0.25804 -1.16419,0.0366 -0.28247,-0.22142 0.24826,-0.7546 -0.0342,-0.97602 -0.28246,-0.22141 -0.88172,0.25805 -1.16419,0.0366 -0.28246,-0.22142 0.14954,-0.69049 -0.0342,-0.97601 -0.51971,-0.80761 -1.87708,-1.07118 -2.39679,-1.87878 -0.18375,-0.28554 0.14954,-0.69049 -0.0342,-0.97602 -0.25985,-0.40381 -1.00955,-0.50837 -1.19839,-0.9394 -0.26707,-0.60956 0.29908,-1.38096 -0.0684,-1.95203 -0.18375,-0.28553 -0.88173,0.25805 -1.16419,0.0366 -2.47952,-1.94363 3.68365,-0.0369 -1.2326,-1.91541 -0.3522,-0.13457 -0.88173,0.25804 -1.16419,0.0366 -0.5992,-0.4697 0.49658,-2.45836 -0.10262,-2.92805 -0.28246,-0.22142 -0.88172,0.25804 -1.16419,0.0366 -0.0482,-0.0378 -0.12426,-3.54563 -0.13682,-3.90406 -0.0238,-0.67886 -0.36916,-4.52051 -0.17103,-4.88009 0.23101,-0.41924 0.89897,-0.5934 1.12998,-1.01264 0.3267,-0.59291 -0.60109,-1.47467 -0.0684,-1.95203 0.26634,-0.23869 0.89785,0.20205 1.16419,-0.0366 0.53268,-0.47737 -0.60109,-1.47467 -0.0684,-1.95203 0.26634,-0.23869 0.89785,0.20205 1.16419,-0.0366 0.26634,-0.23868 -0.30055,-0.73734 -0.0342,-0.97602 0.26634,-0.23868 0.89785,0.20205 1.16419,-0.0366 0.26634,-0.23868 -0.30054,-0.73733 -0.0342,-0.97601 0.26634,-0.23868 0.89785,0.20205 1.16419,-0.0366 0.26634,-0.23868 -0.30055,-0.73734 -0.0342,-0.97602 0.26634,-0.23868 0.8222,0.11979 1.16419,-0.0366 0.48365,-0.22121 0.64633,-0.79144 1.12998,-1.01265 0.342,-0.15641 0.77613,-0.0244 1.16419,-0.0366 0.38807,-0.0122 0.77613,-0.0244 1.16419,-0.0366 1.94032,-0.061 3.88063,-0.12209 5.82095,-0.18313 0.77612,-0.0244 1.55225,-0.0488 2.32838,-0.0733 0.38806,-0.0122 1.15278,-0.36196 1.16419,-0.0366 0.0114,0.32533 -1.55226,0.0488 -1.16419,0.0366 0.77613,-0.0244 1.64439,0.23958 2.32838,-0.0733 0.34199,-0.15642 -0.0228,-0.65068 -0.0342,-0.97602 -0.0114,-0.32533 -0.0228,-0.65068 -0.0342,-0.97601 -0.0114,-0.32534 -0.0228,-0.65068 -0.0342,-0.97602 -0.0114,-0.32534 0.24826,-0.7546 -0.0342,-0.97602 -0.28247,-0.22141 -0.88173,0.25805 -1.1642,0.0366 -0.28246,-0.22142 -0.0228,-0.65068 -0.0342,-0.97602 -0.0114,-0.32534 -0.0228,-0.65068 -0.0342,-0.97601 -0.0684,-1.95204 -0.13682,-3.90407 -0.20523,-5.8561 -0.0154,-0.43956 -0.26936,-2.62545 -0.10262,-2.92806 0.23101,-0.41924 0.89898,-0.5934 1.12999,-1.01264 0.43831,-0.79547 -0.54094,-2.13259 -0.10262,-2.92805 0.23101,-0.41925 0.89897,-0.5934 1.12998,-1.01264 0.16335,-0.29646 -0.30054,-0.73734 -0.0342,-0.97602 0.53267,-0.47737 1.79569,0.40411 2.32837,-0.0733 0.26634,-0.23868 -0.19755,-0.67956 -0.0342,-0.97601 0.23101,-0.41925 0.75332,-0.6751 1.12998,-1.01265 0.37666,-0.33754 0.64633,-0.79144 1.12999,-1.01264 0.34199,-0.15641 0.82219,0.11979 1.16419,-0.0366 0.48365,-0.22121 0.64633,-0.79144 1.12998,-1.01265 0.34199,-0.15642 0.89785,0.20206 1.16419,-0.0366 0.26634,-0.23868 -0.30055,-0.73733 -0.0342,-0.97601 0.26634,-0.23869 0.89785,0.20205 1.16419,-0.0366 0.26634,-0.23868 -0.30054,-0.73733 -0.0342,-0.97602 0.53268,-0.47736 1.64439,0.23958 2.32838,-0.0732 0.48366,-0.22121 0.64633,-0.79144 1.12999,-1.01264 0.45481,-0.20802 3.26156,0.0971 3.49256,-0.10988 0.26634,-0.23869 -0.30054,-0.73734 -0.0342,-0.97602 0.39665,-0.35546 5.02861,0.17925 5.82095,-0.18313 0.48365,-0.22121 0.64633,-0.79144 1.12998,-1.01265 0.29658,-0.13564 6.15996,-0.1938 6.98513,-0.21976 1.94032,-0.061 3.88063,-0.12209 5.82095,-0.18313 0.38806,-0.0122 0.88172,-0.25805 1.16419,-0.0366 0.28246,0.22142 0.0228,0.65068 0.0342,0.97602 0.0114,0.32534 0.42227,0.96381 0.0342,0.97602 -0.38806,0.0122 -0.0228,-0.65068 -0.0342,-0.97602 -0.0114,-0.32534 -0.0228,-0.65068 -0.0342,-0.97602 -0.0154,-0.43955 -0.26936,-2.62544 -0.10262,-2.92805 0.46202,-0.83849 1.94347,-1.14139 2.25997,-2.02529 0.2238,-0.625 -0.39511,-1.35912 -0.0684,-1.95203 0.16334,-0.29645 0.89785,0.20206 1.16419,-0.0366 0.26634,-0.23868 -0.19756,-0.67956 -0.0342,-0.97601 0.67032,-1.21652 2.31479,-1.31297 3.42416,-2.06192 0.85873,-0.57974 1.40122,-1.44554 2.25996,-2.02529 0.7394,-0.49917 5.95228,-2.85571 6.88252,-3.1478 0.36455,-0.11447 0.8222,0.11979 1.16419,-0.0366 0.48365,-0.22121 0.64633,-0.79144 1.12998,-1.01265 0.29659,-0.13564 6.15996,-0.1938 6.98514,-0.21976 0.38806,-0.0122 0.89785,0.20206 1.16419,-0.0366 0.26634,-0.23869 -0.30055,-0.73734 -0.0342,-0.97602 0.26634,-0.23868 0.77613,-0.0244 1.1642,-0.0366 1.94031,-0.061 3.88063,-0.12209 5.82094,-0.18314 0.38806,-0.0122 0.89785,0.20206 1.16419,-0.0366 0.26634,-0.23869 -0.30054,-0.73734 -0.0342,-0.97602 0.0364,-0.0326 3.21022,-0.101 3.49257,-0.10988 4.65676,-0.14651 9.31351,-0.29302 13.97027,-0.43952 0.38806,-0.0122 0.77613,-0.0244 1.16419,-0.0366 0.38806,-0.0122 0.88172,-0.25804 1.16419,-0.0366 0.28246,0.22142 -0.24826,0.75461 0.0342,0.97602 0.28247,0.22142 0.88173,-0.25804 1.1642,-0.0366 0.28246,0.22141 -0.24826,0.75459 0.0342,0.97601 0.28246,0.22142 0.88172,-0.25804 1.16419,-0.0366 0.28246,0.22142 -0.14954,0.69049 0.0342,0.97602 0.25986,0.4038 0.93854,0.53559 1.1984,0.93939 0.18375,0.28553 0.0228,0.65068 0.0342,0.97602 0.0114,0.32534 0.0228,0.65068 0.0342,0.97601 0.057,1.6267 0.11402,3.25339 0.17103,4.88009 0.0228,0.65068 0.0456,1.30136 0.0684,1.95204 0.0114,0.32533 0.42227,0.9638 0.0342,0.97601 -0.38807,0.0122 -0.42227,-0.96381 -0.0342,-0.97601 0.5488,-0.0173 0.64959,0.95665 1.19839,0.93938 0.38807,-0.0122 -0.19755,-0.67956 -0.0342,-0.97601 0.51913,-0.94214 3.49436,-2.89224 4.55414,-3.07456 1.52363,-0.26211 3.13312,0.11561 4.65675,-0.14651 0.85174,-0.14652 1.44244,-0.90274 2.29418,-1.04927 1.52363,-0.26211 3.1045,-0.0977 4.65675,-0.1465 3.49257,-0.10988 6.98514,-0.21976 10.47771,-0.32964 0.42753,-0.0135 4.60853,-0.18431 4.65675,-0.14651 0.28247,0.22142 -0.24825,0.7546 0.0342,0.97602 0.28246,0.22141 0.88172,-0.25805 1.16419,-0.0366 0.28247,0.22142 -0.24826,0.7546 0.0342,0.97602 0.28246,0.22141 0.81199,-0.1712 1.16418,-0.0366 0.49808,0.19032 0.73282,0.69854 1.1984,0.93939 0.73614,0.38082 1.57506,0.60184 2.36259,0.90277 0.78752,0.30091 1.53131,0.69861 2.36258,0.90276 0.37175,0.0913 0.98044,-0.32216 1.16419,-0.0366 0.36749,0.57107 0.0456,1.30136 0.0684,1.95203 0.0114,0.32535 -0.24826,0.75461 0.0342,0.97602 0.28247,0.22142 0.88173,-0.25804 1.1642,-0.0366 0.28246,0.22141 0.0228,0.65067 0.0342,0.97601 0.38806,-0.0122 0.88172,-0.25804 1.16419,-0.0366 0.56493,0.44284 -0.49652,1.50921 0.0684,1.95204 0.28246,0.22142 0.88173,-0.25804 1.16419,-0.0366 0.32791,0.25703 -0.19751,3.38452 0.13682,3.90406 0.25985,0.4038 0.93854,0.53559 1.19839,0.93939 0.0842,0.1308 0.28007,5.7203 0.20524,5.8561 -0.23101,0.41925 -0.89898,0.5934 -1.12998,1.01265 -0.3267,0.5929 0.60109,1.47467 0.0684,1.95203 -0.26634,0.23868 -0.89785,-0.20205 -1.16419,0.0366 -0.53268,0.47736 0.60109,1.47467 0.0684,1.95203 -0.26634,0.23869 -0.89785,-0.20205 -1.16419,0.0366 -0.26634,0.23868 -0.24826,0.7546 0.0342,0.97601 0.56493,0.44284 1.62399,-0.3424 2.32838,-0.0732 0.49807,0.19032 0.70032,0.74907 1.19839,0.93939 0.52565,0.20086 4.11906,-0.27856 4.65676,-0.1465 0.52574,0.12911 0.70031,0.74906 1.19839,0.93938 0.3522,0.13458 0.83498,-0.20693 1.16419,-0.0366 0.93115,0.4817 1.59786,1.25252 2.39679,1.87878 0.39947,0.31313 0.67265,0.81027 1.1984,0.93939 0.7435,0.1826 1.58486,-0.25585 2.32837,-0.0733 0.52575,0.12911 0.70032,0.74907 1.1984,0.93939 0.35219,0.13457 0.81199,-0.17121 1.16419,-0.0366 0.99615,0.38064 1.40064,1.49814 2.39679,1.87878 0.35219,0.13458 0.81199,-0.1712 1.16418,-0.0366 0.49808,0.19032 0.73282,0.69854 1.1984,0.9394 0.73614,0.38081 1.62644,0.52194 2.36259,0.90276 0.93115,0.4817 1.40063,1.49814 2.39679,1.87878 0.35219,0.13457 0.88172,-0.25805 1.16418,-0.0366 0.28247,0.22142 -0.24826,0.7546 0.0342,0.97602 2.47952,1.94363 -0.20231,-3.08297 2.36258,0.90276 0.18375,0.28553 -0.24826,0.7546 0.0342,0.97602 0.28246,0.22142 0.88173,-0.25804 1.16419,-0.0366 0.56493,0.44284 -0.49652,1.5092 0.0684,1.95204 0.28246,0.22141 0.88172,-0.25805 1.16419,-0.0366 0.28246,0.22142 0.0228,0.65068 0.0342,0.97602 0.0114,0.32534 0.0228,0.65067 0.0342,0.97601 0.0114,0.32534 0.0456,1.30136 0.0342,0.97602 -0.0228,-0.65068 -0.0912,-2.60271 -0.0684,-1.95203 0.0342,0.97601 0.0684,1.95203 0.10262,2.92805 0.0114,0.32533 0.42227,0.9638 0.0342,0.97601 -0.38807,0.0122 -0.0456,-1.30135 -0.0342,-0.97601 0.0228,0.65068 0.0456,1.30135 0.0684,1.95203 0.0114,0.32534 0.0228,0.65068 0.0342,0.97602 0.0114,0.32534 0.30054,0.73733 0.0342,0.97602 -0.26634,0.23868 -0.89784,-0.20206 -1.16418,0.0366 -0.26634,0.23868 0.30054,0.73733 0.0342,0.97602 -0.26634,0.23868 -0.89785,-0.20206 -1.16419,0.0366 -0.26634,0.23869 0.30054,0.73734 0.0342,0.97602 -0.26634,0.23868 -0.89785,-0.20205 -1.16419,0.0366 -0.26634,0.23868 0.30054,0.73733 0.0342,0.97601 -0.26633,0.23869 -0.89785,-0.20205 -1.16419,0.0366 -0.26634,0.23868 0.30055,0.73734 0.0342,0.97602 -0.56499,0.50632 -2.92758,-0.39644 -3.49257,0.10988 -0.26634,0.23868 0.30055,0.73733 0.0342,0.97601 -0.26634,0.23869 -0.89785,-0.20205 -1.16419,0.0366 -0.26634,0.23868 0.30054,0.73734 0.0342,0.97602 -0.26634,0.23868 -0.89784,-0.20206 -1.16418,0.0366 -0.26634,0.23868 0.0228,0.65067 0.0342,0.97601 0.0114,0.32534 0.0228,0.65068 0.0342,0.97602 0.0114,0.32534 -0.14954,0.69049 0.0342,0.97602 0.51971,0.80761 1.87708,1.07117 2.39679,1.87878 0.4257,0.66152 -0.24963,4.55034 0.17103,4.88008 0.28247,0.22142 0.88172,-0.25804 1.16419,-0.0366 0.28246,0.22141 0.0228,0.65067 0.0342,0.97602 0.0114,0.32533 0.0228,0.65067 0.0342,0.97601 0.0154,0.43956 0.26936,2.62544 0.10262,2.92805 -0.23101,0.41925 -0.89897,0.5934 -1.12998,1.01264 -0.3267,0.59291 0.60109,1.47467 0.0684,1.95204 -0.26634,0.23868 -0.89786,-0.20206 -1.1642,0.0366 -0.26633,0.23869 0.30055,0.73734 0.0342,0.97602 -0.26634,0.23869 -0.89785,-0.20205 -1.16419,0.0366 -0.26634,0.23868 0.30055,0.73733 0.0342,0.97601 -0.56499,0.50632 -2.92757,-0.39644 -3.49257,0.10988 -0.26634,0.23869 0.30054,0.73734 0.0342,0.97602 -0.23101,0.20702 -3.03776,-0.0981 -3.49257,0.10988 -0.48366,0.22121 -0.64633,0.79144 -1.12999,1.01264 -0.41482,0.18973 -5.0112,0.15766 -5.82094,0.18314 -0.42753,0.0134 -4.61128,0.10575 -4.65675,0.1465 -1.50665,1.3502 1.97451,0.91498 -1.12999,1.01265 -0.28235,0.009 -3.45403,0.1401 -3.49257,0.10988 -0.28246,-0.22142 0.24826,-0.7546 -0.0342,-0.97602 -0.28247,-0.22141 -0.88173,0.25804 -1.16419,0.0366 -0.28247,-0.22142 -0.42227,-0.96381 -0.0342,-0.97602 0.38807,-0.0122 0.0456,1.30136 0.0342,0.97602 -0.0228,-0.65068 -0.0456,-1.30136 -0.0684,-1.95204 -0.0114,-0.32533 0.24825,-0.75459 -0.0342,-0.97601 -0.28246,-0.22142 -0.77613,0.0244 -1.16419,0.0366"
         style="fill:#ff0000;fill-rule:evenodd;stroke:#000000;stroke-width:0.52791351px;stroke-linecap:butt;stroke-linejoin:miter;stroke-opacity:1" />
      <path
         inkscape:connector-curvature="0"
         id="path3350"
         d="m 387.20078,645.09495 c 7.76126,-0.24417 15.52252,-0.48835 23.28378,-0.73253 1.94031,-0.061 3.88063,-0.12209 5.82094,-0.18313 0.38807,-0.0122 0.77613,-0.0244 1.1642,-0.0366 0.38806,-0.0122 0.82219,0.11979 1.16418,-0.0366 0.48366,-0.22121 0.64633,-0.79144 1.12999,-1.01265 0.68399,-0.31283 1.7957,0.40411 2.32838,-0.0733 0.59555,-0.53371 0.50022,-1.45495 1.09577,-1.98866 0.26635,-0.23869 0.8222,0.11978 1.16419,-0.0366 1.91236,-0.87464 0.45762,-1.96858 3.42416,-2.06191"
         style="fill:none;fill-rule:evenodd;stroke:#000000;stroke-width:0.52791351px;stroke-linecap:butt;stroke-linejoin:miter;stroke-opacity:1" />
      <path
         inkscape:connector-curvature="0"
         id="path3352"
         d="m 226.09799,637.46121 c -3.88063,0.12209 -7.76126,0.24418 -11.64189,0.36627 -1.16419,0.0366 -2.43598,0.51361 -3.49256,0.10988 -0.3522,-0.13458 0.24825,-0.7546 -0.0342,-0.97602 -0.28246,-0.22141 -0.812,0.17121 -1.16419,0.0366 -0.49808,-0.19032 -0.70032,-0.74907 -1.19839,-0.93939 -0.3522,-0.13458 -0.812,0.1712 -1.16419,0.0366 -2.44041,-0.93249 0.0151,-1.58941 -2.431,-2.85479 -4.74797,-2.45621 -0.35386,0.98822 -3.59518,-2.81817 -0.73766,-0.86626 -3.04894,-1.96932 -3.59519,-2.81817 -0.24436,-0.37973 0.14238,-2.73601 -0.10261,-2.92806 -0.28247,-0.22141 -0.88173,0.25805 -1.16419,0.0366 -0.0385,-0.0302 -0.0943,-2.69134 -0.10262,-2.92805"
         style="fill:none;fill-rule:evenodd;stroke:#000000;stroke-width:0.52791351px;stroke-linecap:butt;stroke-linejoin:miter;stroke-opacity:1" />
      <path
         inkscape:connector-curvature="0"
         id="path3354"
         d="m 280.02816,613.29137 c 0.057,1.6267 0.11401,3.25339 0.17102,4.88008 0.008,0.23672 0.13898,2.89549 0.10262,2.92806 -0.26634,0.23868 -0.89785,-0.20206 -1.16419,0.0366 -0.26634,0.23869 0.30055,0.73734 0.0342,0.97602 -0.26634,0.23868 -0.77613,0.0244 -1.16419,0.0366 -0.38806,0.0122 -0.77613,0.0244 -1.16419,0.0366 -0.38806,0.0122 -0.77612,0.0244 -1.16419,0.0366 -0.38806,0.0122 -0.88172,0.25804 -1.16419,0.0366 -0.28246,-0.22142 0.14954,-0.69049 -0.0342,-0.97602 -0.25986,-0.4038 -0.93854,-0.53559 -1.1984,-0.93939 -0.18375,-0.28553 0.24826,-0.7546 -0.0342,-0.97602 -0.56492,-0.44283 -1.76345,0.51609 -2.32837,0.0733 -0.28247,-0.22142 0.24825,-0.75461 -0.0342,-0.97602 -0.28246,-0.22142 -0.88172,0.25804 -1.16419,0.0366 -0.56492,-0.44283 0.49652,-1.5092 -0.0684,-1.95203 -0.28246,-0.22142 -0.88173,0.25804 -1.16419,0.0366 -0.0543,-0.0426 -0.1549,-4.41989 -0.17103,-4.88008 -0.0114,-0.32535 -0.30054,-0.73734 -0.0342,-0.97602 0.53268,-0.47737 1.7957,0.40411 2.32837,-0.0733 0.26634,-0.23868 -0.30054,-0.73733 -0.0342,-0.97601 0.26634,-0.23868 0.77613,-0.0244 1.16419,-0.0366 1.94031,-0.061 3.88063,-0.12209 5.82094,-0.18313 0.38807,-0.0122 0.98045,-0.32216 1.1642,-0.0366 0.7576,1.17728 0.86734,2.5783 1.30101,3.86744 z"
         style="fill:#2b0000;fill-rule:evenodd;stroke:#000000;stroke-width:0.52791351px;stroke-linecap:butt;stroke-linejoin:miter;stroke-opacity:1" />
      <path
         inkscape:connector-curvature="0"
         id="path3356"
         d="m 325.29471,607.95887 c 0.82174,1.27693 1.64347,2.55387 2.4652,3.83081 0.38807,-0.0122 0.88173,-0.25804 1.16419,-0.0366 0.0386,0.0302 0.0943,2.69134 0.10262,2.92805 0.008,0.23671 0.13897,2.89548 0.10262,2.92805 -0.26634,0.23869 -0.89785,-0.20205 -1.16419,0.0366 -0.53268,0.47737 0.60109,1.47467 0.0684,1.95203 -0.53268,0.47737 -1.64439,-0.23957 -2.32838,0.0733 -0.48365,0.2212 -0.64633,0.79143 -1.12998,1.01264 -0.12804,0.0586 -5.6891,0.23351 -5.82095,0.18313 -0.49807,-0.19032 -0.79893,-0.62626 -1.19839,-0.93939 -0.39947,-0.31313 -0.93854,-0.53558 -1.1984,-0.93939 -0.36749,-0.57106 0.49652,-1.5092 -0.0684,-1.95203 -0.28246,-0.22142 -0.88172,0.25804 -1.16419,0.0366 -0.56492,-0.44283 0.49652,-1.5092 -0.0684,-1.95203 -0.28246,-0.22141 -0.88173,0.25804 -1.16419,0.0366 -0.0482,-0.0378 -0.12426,-3.54564 -0.13682,-3.90407 -0.0114,-0.32534 -0.30055,-0.73733 -0.0342,-0.97601 0.26634,-0.23869 0.8222,0.11979 1.16419,-0.0366 0.48365,-0.22121 0.64633,-0.79144 1.12998,-1.01265 0.61697,-0.28217 3.73248,0.0386 4.65676,-0.1465 1.55974,-0.31243 3.0817,-0.74835 4.62255,-1.12252 z"
         style="fill:#2b0000;fill-rule:evenodd;stroke:#000000;stroke-width:0.52791351px;stroke-linecap:butt;stroke-linejoin:miter;stroke-opacity:1" />
      <path
         inkscape:connector-curvature="0"
         id="path3358"
         d="m 280.67806,631.83569 c 4.32632,2.52845 3.80908,2.856 8.28615,3.64768 0.37925,0.0671 0.79244,-0.12792 1.16419,-0.0366 0.83127,0.20415 1.53131,0.69861 2.36258,0.90276 0.66327,0.16289 2.72757,-0.0858 3.49257,-0.10988 1.94032,-0.061 3.88063,-0.12209 5.82095,-0.18313 0.80974,-0.0255 5.40612,0.007 5.82094,-0.18314 0.48366,-0.2212 0.64633,-0.79143 1.12999,-1.01264 0.45481,-0.20801 3.26156,0.0971 3.49256,-0.10988 0.26634,-0.23868 -0.30054,-0.73733 -0.0342,-0.97602 0.56499,-0.50632 2.92757,0.39645 3.49257,-0.10988 0.26634,-0.23868 -0.30055,-0.73733 -0.0342,-0.97601 0.53268,-0.47737 1.64439,0.23957 2.32838,-0.0733 0.48365,-0.2212 0.64633,-0.79143 1.12998,-1.01264 1.58224,-0.72366 1.08276,1.14925 2.29418,-1.04927 0.16334,-0.29645 -0.30055,-0.73733 -0.0342,-0.97602 0.26634,-0.23868 0.89785,0.20206 1.16419,-0.0366 0.26634,-0.23869 -0.30054,-0.73734 -0.0342,-0.97602 0.26634,-0.23868 0.89784,0.20205 1.16418,-0.0366 0.26634,-0.23868 -0.30054,-0.73733 -0.0342,-0.97601 0.26634,-0.23869 0.88172,-0.25805 1.16419,-0.0366 0.10205,0.08 0.27825,2.43754 0.10262,2.92805 -0.25022,0.69878 -0.84557,1.28988 -1.09579,1.98866 -0.1119,0.3125 0.30055,0.73734 0.0342,0.97602 -0.26634,0.23868 -0.89785,-0.20206 -1.16419,0.0366 -0.56499,0.50633 0.66761,2.42173 0.10262,2.92805 -0.53268,0.47737 -1.7957,-0.40411 -2.32838,0.0733 -0.26634,0.23868 0.30055,0.73733 0.0342,0.97602 -0.26634,0.23868 -0.89785,-0.20206 -1.16419,0.0366 -0.26634,0.23868 0.30054,0.73733 0.0342,0.97602 -0.53268,0.47737 -1.64438,-0.23958 -2.32838,0.0733 -0.9673,0.44241 -1.29266,1.58288 -2.25996,2.02529 -0.342,0.15641 -0.77613,0.0244 -1.16419,0.0366 -0.77613,0.0244 -1.55225,0.0488 -2.32838,0.0733 -3.1045,0.0977 -6.20901,0.19534 -9.31351,0.29301 -0.28235,0.009 -3.45623,0.0773 -3.49257,0.10988 -0.26634,0.23868 0.30054,0.73734 0.0342,0.97602 -0.26633,0.23868 -0.77612,0.0244 -1.16419,0.0366 -2.32838,0.0732 -4.65675,0.1465 -6.98513,0.21976 -0.38806,0.0122 -0.77613,0.0244 -1.16419,0.0366 -0.38806,0.0122 -0.812,0.17121 -1.16419,0.0366 -0.49807,-0.19032 -0.70032,-0.74907 -1.19839,-0.93939 -0.70439,-0.26915 -1.76345,0.51609 -2.32838,0.0733 -0.28246,-0.22142 0.24826,-0.7546 -0.0342,-0.97601 -0.28246,-0.22142 -0.88172,0.25804 -1.16419,0.0366 -0.28246,-0.22141 0.24826,-0.7546 -0.0342,-0.97602 -0.56493,-0.44283 -1.76345,0.51609 -2.32838,0.0733 -0.56493,-0.44284 0.29908,-1.38097 -0.0684,-1.95204 -0.25985,-0.4038 -0.93854,-0.53558 -1.1984,-0.93939 -0.18374,-0.28553 -0.0991,-0.6546 -0.0342,-0.97601 0.26769,-1.32523 0.68491,-2.62713 1.02736,-3.9407 z"
         style="fill:#ff0000;fill-rule:evenodd;stroke:#000000;stroke-width:0.52791351px;stroke-linecap:butt;stroke-linejoin:miter;stroke-opacity:1" />
    </g>
    <path
       style="fill:none;fill-rule:evenodd;stroke:#000000;stroke-width:1px;stroke-linecap:butt;stroke-linejoin:miter;stroke-opacity:1"
       d="m -93.566849,309.62733 c 11.139988,18.56665 12.151879,16.29766 16.162442,34.34519 0.438265,1.9722 -0.638877,4.14429 0,6.06091 3.224982,9.67495 2.020305,-3.23426 2.020305,12.12184 0,1.34687 0,2.69374 0,4.04061 0,0.67343 0.47619,1.54411 0,2.0203 -0.476191,0.47619 -1.544115,-0.47619 -2.020305,0 -0.476191,0.47619 0.47619,1.54412 0,2.02031 -0.476191,0.47619 -1.34687,0 -2.020306,0 -4.04061,0 -8.081216,0 -12.121826,0 -10.774961,0 -21.549921,0 -32.324891,0 -8.08122,0 -16.16244,0 -24.24366,0 -0.67343,0 -1.34687,0 -2.0203,0 -0.67344,0 -1.54412,0.47619 -2.02031,0 -0.47619,-0.47619 0.47619,-1.54412 0,-2.02031 -4.18008,-4.18008 0.16341,6.38772 -4.04061,-2.0203 -0.95238,-1.90477 -1.22939,-4.08365 -2.0203,-6.06092 -0.55926,-1.39814 -1.65509,-2.57972 -2.02031,-4.04061 -0.48999,-1.95998 0.63888,-4.14429 0,-6.06092 -0.47619,-1.42857 -1.72498,-2.564 -2.0203,-4.04061 -0.53542,-2.67708 0,-7.06749 0,-10.10152 0,-1.4052 -0.36531,-9.37092 0,-10.10153 1.02836,-2.05673 4.42045,-3.22037 6.06091,-4.04061 2.69374,-1.34687 5.22408,-3.08823 8.08122,-4.04061 1.38964,-0.46321 4.8689,0.59601 6.06092,0 0.85183,-0.42591 1.1168,-1.71913 2.0203,-2.0203 1.91663,-0.63888 4.04061,0 6.06092,0 3.36717,0 6.73435,0 10.10152,0 4.71405,0 9.4281,0 14.14214,0 0.67344,0 1.54411,-0.47619 2.02031,0 0.47619,0.47619 -0.4762,1.54411 0,2.0203 0.95238,0.95238 3.08822,-0.95238 4.04061,0 0.47619,0.47619 -0.47619,1.54412 0,2.02031 0.47619,0.47619 1.54411,-0.47619 2.0203,0 2.693741,2.69374 -3.36717,2.0203 2.020311,2.0203"
       id="pathCircle"
       inkscape:connector-curvature="0"
       inkscape:label="#path3357" />
  </g>
<animateTransform attributeName="transform" 
                      attributeType="XML"
                      type="rotate" 
                      from="0 300 710" 
                      to="360 300 710" 
                      dur="5s"
                      repeatCount="indefinite"
                      xlink:href="#muffin"/>
<animate
     id="color1"
     attributeName="fill"
     calcMode="linear"
     from="#0000FF"
     to="#FF0000"
     begin="0s; color2.end"
     dur="2.5s"
     xlink:href="#title" />
<animate
     id="color2"
     attributeName="fill"
     calcMode="linear"
     from="#FF0000"
     to="#0000FF"
     begin="color1.end"
     dur="2.5s"
     xlink:href="#title" />
</svg>
